<svg width="24" height="24" viewBox="0 0 24 24" fill="none" xmlns="http://www.w3.org/2000/svg">
<path d="M10 22C8.61667 22 7.4375 21.5125 6.4625 20.5375C5.4875 19.5625 5 18.3833 5 17C5 16.15 5.19167 15.3667 5.575 14.65C5.95833 13.9333 6.46667 13.35 7.1 12.9C7.33333 12.7333 7.58333 12.675 7.85 12.725C8.11667 12.775 8.33333 12.9167 8.5 13.15C8.66667 13.3833 8.72917 13.6333 8.6875 13.9C8.64583 14.1667 8.50833 14.3833 8.275 14.55C7.89167 14.8333 7.58333 15.1875 7.35 15.6125C7.11667 16.0375 7 16.5 7 17C7 17.8333 7.29167 18.5417 7.875 19.125C8.45833 19.7083 9.16667 20 10 20C10.5 20 10.9625 19.8833 11.3875 19.65C11.8125 19.4167 12.1667 19.1083 12.45 18.725C12.6167 18.4917 12.8333 18.3542 13.1 18.3125C13.3667 18.2708 13.6167 18.3333 13.85 18.5C14.0833 18.6667 14.225 18.8833 14.275 19.15C14.325 19.4167 14.2667 19.6667 14.1 19.9C13.65 20.5333 13.0667 21.0417 12.35 21.425C11.6333 21.8083 10.85 22 10 22ZM18 22C17.7167 22 17.4792 21.9042 17.2875 21.7125C17.0958 21.5208 17 21.2833 17 21V17H12C11.45 17 10.9792 16.8042 10.5875 16.4125C10.1958 16.0208 10 15.55 10 15V9C10 8.45 10.1958 7.97917 10.5875 7.5875C10.9792 7.19583 11.45 7 12 7C12.4 7 12.7458 7.0875 13.0375 7.2625C13.3292 7.4375 13.6417 7.71667 13.975 8.1C14.725 9 15.4042 9.65833 16.0125 10.075C16.6208 10.4917 17.275 10.7667 17.975 10.9C18.2583 10.95 18.5 11.075 18.7 11.275C18.9 11.475 19 11.7167 19 12C19 12.2833 18.8958 12.5167 18.6875 12.7C18.4792 12.8833 18.2417 12.95 17.975 12.9C17.2417 12.7667 16.5292 12.5333 15.8375 12.2C15.1458 11.8667 14.5333 11.4833 14 11.05V14.5H17C17.55 14.5 18.0208 14.6958 18.4125 15.0875C18.8042 15.4792 19 15.95 19 16.5V21C19 21.2833 18.9042 21.5208 18.7125 21.7125C18.5208 21.9042 18.2833 22 18 22ZM12 6C11.45 6 10.9792 5.80417 10.5875 5.4125C10.1958 5.02083 10 4.55 10 4C10 3.45 10.1958 2.97917 10.5875 2.5875C10.9792 2.19583 11.45 2 12 2C12.55 2 13.0208 2.19583 13.4125 2.5875C13.8042 2.97917 14 3.45 14 4C14 4.55 13.8042 5.02083 13.4125 5.4125C13.0208 5.80417 12.55 6 12 6Z" fill="#08284D"/>
</svg>
