<svg width="24" height="24" viewBox="0 0 24 24" fill="none" xmlns="http://www.w3.org/2000/svg">
<path fill-rule="evenodd" clip-rule="evenodd" d="M10.998 13H7.99805C7.99805 14.6569 9.3412 16 10.998 16V18.9648C9.82521 18.9248 8.75191 18.7908 7.74512 18.4111C6.50833 17.9447 5.45337 17.1409 4.41504 15.8701C2.94464 14.0269 2.18892 11.7194 2.14453 9.36719L1.98047 2.64062L2.68457 2.4082C5.14779 1.59481 7.69551 1.13675 10.998 1.02344V13ZM5.99805 7V9H8.99805V7H5.99805Z" fill="black"/>
<path fill-rule="evenodd" clip-rule="evenodd" d="M13 5C16.3025 5.11331 18.8503 5.57137 21.3135 6.38477L22.0176 6.61719L21.8535 13.3438C21.8091 15.696 21.0534 18.0035 19.583 19.8467C18.5447 21.1174 17.4897 21.9212 16.2529 22.3877C15.2461 22.7674 14.1728 22.9013 13 22.9414V17.9775C13.7287 17.99 14.266 18.1801 14.793 18.707L15.5 19.4141L16.9141 18L16.207 17.293C15.3077 16.3936 14.2523 15.9964 13 15.9775V5ZM15 12.9766H18V10.9766H15V12.9766Z" fill="black"/>
</svg>
